<?xml version="1.0" encoding="utf-8"?>
<!-- Generator: Adobe Illustrator 26.3.1, SVG Export Plug-In . SVG Version: 6.00 Build 0)  -->
<svg version="1.1" id="katman_1" xmlns="http://www.w3.org/2000/svg" xmlns:xlink="http://www.w3.org/1999/xlink" x="0px" y="0px"
	 viewBox="0 0 688 163" style="enable-background:new 0 0 688 163;" xml:space="preserve">
<style type="text/css">
	.st0{fill:#9796F7;}
	.st1{fill:#B4B9F6;}
	.st2{fill:#9391EA;}
	.st3{fill:#01E4D0;}
	.st4{fill:#F70083;}
	.st5{fill:#FED4BD;}
	.st6{fill:#F1539A;}
	.st7{clip-path:url(#SVGID_00000173148570613925821460000015149882263026682285_);}
	.st8{clip-path:url(#SVGID_00000135686258996876740670000005222990884194277006_);fill:#0C0C0C;}
	.st9{clip-path:url(#SVGID_00000010989881088702850390000008041240135631576471_);fill:#0C0C0C;}
	.st10{clip-path:url(#SVGID_00000111163687212335404580000012573590327515619457_);fill:#0C0C0C;}
	.st11{clip-path:url(#SVGID_00000031903149901858278710000007821554151433453757_);fill:#0C0C0C;}
	.st12{clip-path:url(#SVGID_00000090265118236979435850000016003609603329281181_);fill:#0C0C0C;}
	.st13{clip-path:url(#SVGID_00000080905939975037604170000003773988536714066086_);fill:#0C0C0C;}
	.st14{clip-path:url(#SVGID_00000048482635239597801590000004088685483762342300_);fill:#0C0C0C;}
	.st15{clip-path:url(#SVGID_00000008111590878207738370000014631243596798155679_);fill:#EFE511;}
	.st16{clip-path:url(#SVGID_00000060008773003074051430000013761752269301008276_);fill:#0C0C0C;}
	.st17{clip-path:url(#SVGID_00000093167324690051143950000014620695642311963809_);fill:#ED0E0F;}
	.st18{clip-path:url(#SVGID_00000083767779145675668030000016119483868150520455_);fill:#FEFEFE;}
	.st19{clip-path:url(#SVGID_00000096741930940713848440000012093161137618401974_);}
	.st20{clip-path:url(#SVGID_00000089566374187721307680000007098202419272966576_);}
	.st21{clip-path:url(#SVGID_00000060000409473709556880000002433079447978557839_);}
	.st22{clip-path:url(#SVGID_00000063615435242417878530000005681279163796868776_);fill:#ED0E0F;}
	.st23{clip-path:url(#SVGID_00000031188071804109157200000002516589040353794714_);}
</style>
<path class="st0" d="M0-193"/>
<path class="st0" d="M0-193"/>
<path class="st1" d="M0-193"/>
<path class="st1" d="M0-193"/>
<path class="st0" d="M0-193"/>
<path class="st0" d="M0-193"/>
<path class="st2" d="M0-193"/>
<path class="st2" d="M0-193"/>
<path class="st3" d="M0-193"/>
<path class="st3" d="M0-193"/>
<path class="st4" d="M0-193"/>
<path class="st4" d="M0-193"/>
<path class="st5" d="M0-193"/>
<path class="st6" d="M0-193"/>
<path class="st6" d="M0-193"/>
<path class="st0" d="M0-193"/>
<g>
	<path class="st0" d="M0-193"/>
	<path class="st0" d="M0-193"/>
	<path class="st0" d="M0-193"/>
	<path class="st0" d="M0-193"/>
	<path class="st0" d="M0-193"/>
	<path class="st0" d="M0-193"/>
	<path class="st0" d="M0-193"/>
	<path class="st0" d="M0-193"/>
	<path class="st0" d="M0-193"/>
</g>
<g>
	<g>
		<g>
			<defs>
				<rect id="SVGID_1_" x="15.5" y="-107.1" width="666.6" height="404"/>
			</defs>
			<clipPath id="SVGID_00000089556914275498271110000017498838953205924277_">
				<use xlink:href="#SVGID_1_"  style="overflow:visible;"/>
			</clipPath>
			<g style="clip-path:url(#SVGID_00000089556914275498271110000017498838953205924277_);">
				<g>
					<defs>
						<rect id="SVGID_00000142163308227713381340000014343111223687616440_" x="15.5" y="-107.1" width="666.6" height="404"/>
					</defs>
					<clipPath id="SVGID_00000087404466126605261190000000214909071204106387_">
						<use xlink:href="#SVGID_00000142163308227713381340000014343111223687616440_"  style="overflow:visible;"/>
					</clipPath>
					<path style="clip-path:url(#SVGID_00000087404466126605261190000000214909071204106387_);fill:#0C0C0C;" d="M233.2,130.8
						c3-0.8,4.7-1.3,6.4-1.7c4.1-0.9,6-3.7,6-7.6c0.1-28.4,0.1-56.9,0-85.3c0-4.4-2.4-7.1-6.7-8.1c-1.6-0.4-3.2-0.4-4.5-1.6
						c0.5-1.4,1.7-0.7,2.6-0.7c11.9,0,23.9-0.1,35.8,0c6.5,0.1,12.9,1.4,18.9,3.9c1.6,0.7,3.2,1.4,4.7,2.4
						c12.3,8,11.9,21.4-0.7,28.7c-2.9,1.7-6,3.1-9.5,3.6c-1.1,0.1-2.6,0-2.5,1.8c0.1,1.4,1.5,1.2,2.4,1.3c6.9,1.1,13.3,3.8,19.2,7.5
						c15.1,9.4,17.6,28.9,5.5,41.9c-9.6,10.2-22.1,13.9-35.4,14.7c-12.9,0.8-25.9,0.2-38.9,0.2C235.9,131.7,235.2,131.3,233.2,130.8
						 M263.3,98.3c0,9.1,0,18.2,0,27.4c0,2.1,0.3,3.5,2.7,3.6c8.4,0.2,16.5-1,23.1-6.8c9.6-8.4,12.7-25.4,7.1-38.8
						c-4.6-11.1-15.9-17.3-29.5-16.5c-2.7,0.2-3.5,1.1-3.4,3.8C263.4,80.1,263.3,89.2,263.3,98.3 M263.3,46.1
						C263.3,46.1,263.3,46.1,263.3,46.1c0.1,4.1,0.1,8.2,0.1,12.3c0,6.8,0,6.8,6.9,6.4c9.6-0.5,15.8-5.6,17-14.1
						c1.5-10.5-2.4-18.6-10.6-21.1c-3-0.9-6.4-1.1-9.5-1.5c-2.7-0.4-4,0.4-3.9,3.5C263.5,36.4,263.3,41.2,263.3,46.1"/>
				</g>
				<g>
					<defs>
						<rect id="SVGID_00000126282916712300270190000006001344409044292243_" x="15.5" y="-107.1" width="666.6" height="404"/>
					</defs>
					<clipPath id="SVGID_00000169540928603033603840000009088642470370435775_">
						<use xlink:href="#SVGID_00000126282916712300270190000006001344409044292243_"  style="overflow:visible;"/>
					</clipPath>
					<path style="clip-path:url(#SVGID_00000169540928603033603840000009088642470370435775_);fill:#0C0C0C;" d="M229.8,76.9
						c-0.4,14.9-3.4,29-13.5,40.6c-20.9,24-56.2,19.9-71.4-8.1c-10.8-19.9-7.6-53,7-70.2c10.2-12,23.1-18.5,38.9-16
						c17.6,2.8,29.3,13.4,35.4,30.2C229,61,229.9,68.9,229.8,76.9 M210.6,88.4c0-10.5-1-20.9-3.2-31.1c-2.1-9.6-5.1-18.8-12.4-25.9
						c-9.1-8.8-21.6-7.8-29.1,2.4c-4.1,5.5-6,11.8-6.8,18.4c-2.1,15.7-0.9,31.2,2.2,46.6c1.9,9,4.7,17.7,11.1,24.7
						c9.2,10.2,22.5,9.5,30.6-1.6c2.2-3,3.7-6.3,4.8-9.9C209.9,104.3,210.6,96.4,210.6,88.4"/>
				</g>
				<g>
					<defs>
						<rect id="SVGID_00000099624688288113329500000001088061863865811386_" x="15.5" y="-107.1" width="666.6" height="404"/>
					</defs>
					<clipPath id="SVGID_00000131343712688939703090000006924138552261025676_">
						<use xlink:href="#SVGID_00000099624688288113329500000001088061863865811386_"  style="overflow:visible;"/>
					</clipPath>
					<path style="clip-path:url(#SVGID_00000131343712688939703090000006924138552261025676_);fill:#0C0C0C;" d="M77.1,83.4
						c2.2,1.2,2.8-0.8,3.7-2c8.9-11.9,17.7-23.9,26.6-35.8c5.5-7.3,5.2-10.3-1.6-16.4c-0.7-0.6-1.4-1.2-1.1-2.2
						c0.4-1.3,1.5-1.1,2.5-1.1c8.2,0,16.5,0,24.7,0c1.1,0,2.2-0.1,2.4,1.3c0.2,1.3-0.7,1.9-1.7,2.1c-9.2,1.7-14.6,8.2-19.6,15.3
						c-4.2,6-8.7,11.9-13.2,17.7c-1.5,2-1.5,3.4-0.2,5.5c9.8,15.9,19.6,31.9,29.2,47.9c4.1,6.9,9,12.3,17.2,14.1
						c0.6,0.1,1.1,0.4,1.1,1.5h-41.8c7.5-6.5,7.9-9.1,2.8-17.5c-6.2-10.4-12.6-20.6-18.7-31c-1.8-3.1-2.6-2.6-4.9-0.2
						c-5.9,6.4-8.2,13.5-7.2,22.1c0.5,4.8,0.1,9.7,0.1,14.6c0,6.8,1.3,8.4,7.9,10.1c1.1,0.3,2.4,0.1,3.1,1.9H48.9
						c0.8-2.1,2.7-1.8,4.1-2.2c5.2-1.4,6.9-3.4,6.9-9.2c0-17.4-0.1-34.8,0.1-52.1c0-7.6-0.6-16,0.4-23.6c2.5-1.1,4.8-2,7.2-3.5
						c3.4-2.3,6.3-5.3,10.4-6.3c-0.8,11.9-0.1,23.8-0.4,35.7c-0.1,4.3-0.2,8.5-0.4,12.8L77,83L77.1,83.4z"/>
				</g>
				<g>
					<defs>
						<rect id="SVGID_00000101090610717690179870000014046719029821434557_" x="15.5" y="-107.1" width="666.6" height="404"/>
					</defs>
					<clipPath id="SVGID_00000179645489929690782780000009489342403946878599_">
						<use xlink:href="#SVGID_00000101090610717690179870000014046719029821434557_"  style="overflow:visible;"/>
					</clipPath>
					<path style="clip-path:url(#SVGID_00000179645489929690782780000009489342403946878599_);fill:#0C0C0C;" d="M456.1,80.8
						c0.3-15.5,3.5-30.2,14-42.3c20-23.1,53-20.5,69.2,5.5c13.4,21.4,9.7,57.9-7.6,76c-22.5,23.5-61.3,14.3-72.2-17.1
						C457,95.7,455.8,88.4,456.1,80.8 M528.1,85.4c-0.2-3.3-0.5-9.1-1.2-15c-0.5-4.4-1.1-8.8-2.1-13.1c-2.2-9.7-5.2-19.1-12.6-26.3
						c-8.9-8.5-21.3-7.5-28.7,2.4c-4,5.3-6,11.4-6.9,17.9c-2.4,17-1,33.8,2.8,50.4c2,8.7,5.2,16.9,12,23.2c8.8,8.3,20.6,7.4,28.2-2
						c2.6-3.3,4.4-6.9,5.6-10.9C527.4,104.2,528.1,96.1,528.1,85.4"/>
				</g>
				<g>
					<defs>
						<rect id="SVGID_00000118364341415742770210000017086485524977638829_" x="15.5" y="-107.1" width="666.6" height="404"/>
					</defs>
					<clipPath id="SVGID_00000043421724008212156120000007590374670974128779_">
						<use xlink:href="#SVGID_00000118364341415742770210000017086485524977638829_"  style="overflow:visible;"/>
					</clipPath>
					<path style="clip-path:url(#SVGID_00000043421724008212156120000007590374670974128779_);fill:#0C0C0C;" d="M449.4,131.6
						c-7.1,0-13.4,0-19.7,0c-18.9,0-37.7,0-56.6,0c-1.1,0-2.6,0.6-3.3-0.6c-0.7-1.2,0.8-2,1.3-3c18.7-31.9,37.4-63.7,56.3-95.5
						c2-3.3,1.5-4.3-2.4-4.2c-8.8,0.1-17.7,0.2-26.5-0.1c-3.7-0.1-5.8,1.5-7.1,4.7c-1.7,4.2-3.3,8.5-5.6,12.5
						c-1.4,2.3-3.1,3.9-6,3.8c-3.7-0.1-4.3-1.4-3-4.9c2.2-6.1,3.2-12.3-1.2-18.6c8.2,0.9,16.2,0.1,24.1,0
						c15.9-0.1,31.8-0.1,47.7-0.1c0.7,0,1.7-0.3,2,0.4c0.5,1.1-0.4,1.9-0.9,2.8c-7,11.9-14.1,23.8-21.1,35.8
						c-11.9,20.2-23.7,40.4-35.7,60.5c-2,3.4-0.8,4.1,2.5,4.1c10.9,0,21.8,0,32.7,0.1c3,0,4.6-1.4,5.8-3.9c1.9-4.1,3.7-8.3,5.7-12.5
						c1.1-2.3,2.7-4.3,5.6-4.5c1.8-0.2,3.8,0,4.9,1.4c1,1.3-0.9,2.3-1.2,3.5C446,119.2,444.3,125.2,449.4,131.6"/>
				</g>
				<g>
					<defs>
						<rect id="SVGID_00000060739293061352367460000005847372716801485238_" x="15.5" y="-107.1" width="666.6" height="404"/>
					</defs>
					<clipPath id="SVGID_00000018228724803593300520000016723158388935489416_">
						<use xlink:href="#SVGID_00000060739293061352367460000005847372716801485238_"  style="overflow:visible;"/>
					</clipPath>
					<path style="clip-path:url(#SVGID_00000018228724803593300520000016723158388935489416_);fill:#0C0C0C;" d="M570.1,43.8
						c-1,2.3-0.2,4.6-0.2,6.9c-0.1,22.4-0.1,44.8-0.1,67.2c0,7.6,1,8.9,8.5,11.1c1.2,0.3,2.7,0.3,3.3,2.3H553c1-2.1,2.8-2.2,4.3-2.6
						c5.2-1.3,7.4-3.6,7.4-8.9c0.1-27,0-53.9,0-80.9c0-4.9-2.3-7.6-7-8.9c-1.3-0.3-2.6-0.5-3.9-0.9c-1-0.2-1.5-0.9-1.3-1.9
						c0.2-0.9,0.9-1.2,1.6-1.2c8,0,15.9,0,23.9,0.1c1.5,0,2.2,1.2,3,2.4c16,23.5,31.9,47.1,47.9,70.6c0.7,1,1,3,2.6,2.4
						c1.4-0.4,0.6-2.1,0.6-3.1c0-19.2,0-38.3,0-57.5c0-7.1-1.1-8.7-7.9-10.8c-0.8-0.3-1.7-0.5-2.5-0.7c-1-0.4-1.9-0.9-1.6-2.2
						c0.3-1.1,1.2-1.1,2.1-1.1c8.5,0,17.1,0,25.6,0c0.9,0,1.8,0.2,2,1.3c0.1,1-0.6,1.6-1.5,1.9c-0.1,0.1-0.3,0.1-0.4,0.1
						c-9.9,1.1-10.7,7.7-10.6,15.9c0.3,27.7,0.1,55.4,0.1,83.1c0,1.6,0.8,3.8-1.6,4.5c-2.3,0.7-3.5-1-4.6-2.6
						c-19.3-27.8-38.6-55.7-58-83.5C572.5,45.6,572.2,43.9,570.1,43.8"/>
				</g>
				<g>
					<defs>
						<rect id="SVGID_00000031902044148497322830000013493995545263165087_" x="15.5" y="-107.1" width="666.6" height="404"/>
					</defs>
					<clipPath id="SVGID_00000119094289175141786350000017709871032380185242_">
						<use xlink:href="#SVGID_00000031902044148497322830000013493995545263165087_"  style="overflow:visible;"/>
					</clipPath>
					<path style="clip-path:url(#SVGID_00000119094289175141786350000017709871032380185242_);fill:#0C0C0C;" d="M319.5,32.7h44
						c0,2-1.2,1.7-2.1,1.8c-6.2,0.6-9.1,3.8-9.1,9.9c0,25.3,0,50.7,0,76c0,6.1,2.5,8.8,8.8,9.4c0.4,0,0.8,0.4,1.2,0.6
						c-2.1,1.4-34.2,2-40.4,0.4c4-0.6,7.2-2.4,9.7-5.5c1.2-1.5,1.8-2.8,1.8-4.7c-0.1-25.9,0-51.9,0-77.8c0-4.2-4.1-8.2-8.5-8.3
						C323.2,34.3,321.5,35.1,319.5,32.7"/>
				</g>
				<g>
					<defs>
						<rect id="SVGID_00000041269304942044208500000014628010235088093369_" x="15.5" y="-107.1" width="666.6" height="404"/>
					</defs>
					<clipPath id="SVGID_00000168798338721491571350000017384174163572661907_">
						<use xlink:href="#SVGID_00000041269304942044208500000014628010235088093369_"  style="overflow:visible;"/>
					</clipPath>
					<path style="clip-path:url(#SVGID_00000168798338721491571350000017384174163572661907_);fill:#EFE511;" d="M77.9,34.5
						c-3.6,1.8-7.1,4-10.4,6.3c-2.3,1.6-2.1,1.5-5.8,3.1c-3.9,1.4-8.6,3.2-12.5,3.2c-1.2,0-2.3,0.3-3.5,0.4
						c-1.6,0.1-3.5,0.2-4.4-1.3c-1.2-1.8,0.6-3.3,1.6-4.1c3.3-2.8,3.1-6.4,2.9-10C45.1,21.9,49.9,14.9,60.1,11
						c9.7-3.7,18.1-1.5,24.4,6.5c1.2,1.5,2.4,3,3.8,4.3c3,2.9,2.3,6.2-1.8,7.6C83.2,30.5,81.2,32.2,77.9,34.5 M78.4,14.6
						c-0.3-1.7-1.5-2.1-2.9-2c-1.5,0.1-3.1,0.5-3.2,2.3c-0.1,1.9,1.4,1.9,2.8,1.9C76.6,16.8,78,16.4,78.4,14.6"/>
				</g>
				<g>
					<defs>
						<rect id="SVGID_00000016051230672863323980000013428564551601769631_" x="15.5" y="-107.1" width="666.6" height="404"/>
					</defs>
					<clipPath id="SVGID_00000107559976146302612850000015594287734827348362_">
						<use xlink:href="#SVGID_00000016051230672863323980000013428564551601769631_"  style="overflow:visible;"/>
					</clipPath>
					<path style="clip-path:url(#SVGID_00000107559976146302612850000015594287734827348362_);fill:#0C0C0C;" d="M342.2,6.2
						c5.7,0.1,10,4.2,10,9.5c0,5.2-5.1,9.8-10.6,9.6c-5.1-0.2-9.6-4.8-9.5-9.7C332.1,10.3,336.6,6.1,342.2,6.2"/>
				</g>
				<g>
					<defs>
						<rect id="SVGID_00000011735368933720390210000004610741903197006731_" x="15.5" y="-107.1" width="666.6" height="404"/>
					</defs>
					<clipPath id="SVGID_00000055687232067956827140000016009446720128538529_">
						<use xlink:href="#SVGID_00000011735368933720390210000004610741903197006731_"  style="overflow:visible;"/>
					</clipPath>
					<polygon style="clip-path:url(#SVGID_00000055687232067956827140000016009446720128538529_);fill:#ED0E0F;" points="77.1,83.4 
						77,83 77.2,82.9 77.4,83.1 					"/>
				</g>
				<g>
					<defs>
						<rect id="SVGID_00000134934690341989855650000005223661064959719083_" x="15.5" y="-107.1" width="666.6" height="404"/>
					</defs>
					<clipPath id="SVGID_00000041273690655864170050000006369401626209925769_">
						<use xlink:href="#SVGID_00000134934690341989855650000005223661064959719083_"  style="overflow:visible;"/>
					</clipPath>
					<path style="clip-path:url(#SVGID_00000041273690655864170050000006369401626209925769_);fill:#FEFEFE;" d="M78.4,14.6
						c-0.4,1.8-1.8,2.2-3.3,2.2c-1.3,0.1-2.9,0-2.8-1.9c0.1-1.9,1.7-2.3,3.2-2.3C76.8,12.6,78.1,12.9,78.4,14.6"/>
				</g>
				<g>
					<defs>
						<rect id="SVGID_00000174565656914245159530000012690768750012031899_" x="15.5" y="-107.1" width="666.6" height="404"/>
					</defs>
					<clipPath id="SVGID_00000078006200504183162240000006092947497441382799_">
						<use xlink:href="#SVGID_00000174565656914245159530000012690768750012031899_"  style="overflow:visible;"/>
					</clipPath>
					<path style="clip-path:url(#SVGID_00000078006200504183162240000006092947497441382799_);" d="M580.7,138.2
						c1.2-0.2,2.8-0.4,4.8-0.4c2.5,0,4.3,0.6,5.5,1.6c1.1,0.9,1.7,2.4,1.7,4.1c0,1.8-0.5,3.2-1.5,4.2c-1.3,1.4-3.5,2.1-6,2.1
						c-0.8,0-1.5,0-2-0.2v7.8h-2.5V138.2z M583.2,147.6c0.5,0.1,1.2,0.2,2.1,0.2c3,0,4.9-1.5,4.9-4.2c0-2.6-1.8-3.8-4.6-3.8
						c-1.1,0-1.9,0.1-2.4,0.2L583.2,147.6L583.2,147.6z"/>
				</g>
				<g>
					<defs>
						<rect id="SVGID_00000014618584670260334290000009590512201193409979_" x="15.5" y="-107.1" width="666.6" height="404"/>
					</defs>
					<clipPath id="SVGID_00000116197376577753878660000011560385706381650317_">
						<use xlink:href="#SVGID_00000014618584670260334290000009590512201193409979_"  style="overflow:visible;"/>
					</clipPath>
					<path style="clip-path:url(#SVGID_00000116197376577753878660000011560385706381650317_);" d="M596.2,138.2
						c1.5-0.2,3.4-0.4,5.4-0.4c3.6,0,6.2,0.8,7.9,2.4c1.7,1.6,2.8,3.9,2.8,7c0,3.2-1,5.8-2.8,7.6c-1.8,1.8-4.8,2.8-8.6,2.8
						c-1.8,0-3.3-0.1-4.6-0.2L596.2,138.2L596.2,138.2z M598.7,155.5c0.6,0.1,1.6,0.1,2.5,0.1c5.4,0,8.3-3,8.3-8.3
						c0-4.6-2.6-7.5-7.9-7.5c-1.3,0-2.3,0.1-3,0.3L598.7,155.5L598.7,155.5z"/>
				</g>
				<g>
					<defs>
						<rect id="SVGID_00000165913323944262502560000003916575115421097100_" x="15.5" y="-107.1" width="666.6" height="404"/>
					</defs>
					<clipPath id="SVGID_00000030458593157568388730000009149413397848348554_">
						<use xlink:href="#SVGID_00000165913323944262502560000003916575115421097100_"  style="overflow:visible;"/>
					</clipPath>
					<path style="clip-path:url(#SVGID_00000030458593157568388730000009149413397848348554_);" d="M631.9,148.9
						c-0.2-2.7-0.3-6-0.3-8.4h-0.1c-0.7,2.3-1.5,4.7-2.5,7.4l-3.5,9.5h-1.9l-3.2-9.3c-0.9-2.8-1.7-5.3-2.3-7.6h-0.1
						c-0.1,2.4-0.2,5.7-0.4,8.6l-0.5,8.4h-2.4l1.4-19.5h3.2l3.3,9.5c0.8,2.4,1.5,4.5,2,6.6h0.1c0.5-2,1.2-4.1,2.1-6.6l3.5-9.5h3.2
						l1.2,19.5h-2.5L631.9,148.9z"/>
				</g>
				<g>
					<defs>
						<rect id="SVGID_00000137125839883007521500000015402512715395281584_" x="15.5" y="-107.1" width="666.6" height="404"/>
					</defs>
					<clipPath id="SVGID_00000137092767546692256010000006771335928289194632_">
						<use xlink:href="#SVGID_00000137125839883007521500000015402512715395281584_"  style="overflow:visible;"/>
					</clipPath>
					
						<rect x="51.8" y="144.4" style="clip-path:url(#SVGID_00000137092767546692256010000006771335928289194632_);fill:#ED0E0F;" width="518.5" height="5.8"/>
				</g>
				<g>
					<defs>
						<rect id="SVGID_00000040534728399838751360000010626400557666876294_" x="15.5" y="-107.1" width="666.6" height="404"/>
					</defs>
					<clipPath id="SVGID_00000005240210522747329370000001656093828790241689_">
						<use xlink:href="#SVGID_00000040534728399838751360000010626400557666876294_"  style="overflow:visible;"/>
					</clipPath>
					
						<rect x="51.9" y="150.3" style="clip-path:url(#SVGID_00000005240210522747329370000001656093828790241689_);" width="518.5" height="5.8"/>
				</g>
			</g>
		</g>
	</g>
</g>
</svg>
